<svg xmlns="http://www.w3.org/2000/svg" width="1000" height="1000" viewBox="0 0 1000 1000">
  <g id="Group_3" data-name="Group 3" transform="translate(-523 -3840)">
    <g id="Layer_x0020_1" transform="translate(693.804 4019.902)">
      <g id="_2258038270768" transform="translate(0.196)">
        <g id="Group_2" data-name="Group 2">
          <g id="Group_1" data-name="Group 1">
            <circle id="Ellipse_1" data-name="Ellipse 1" cx="42.384" cy="42.384" r="42.384" transform="translate(133.087 0)" fill="#05b6ff"/>
            <path id="Path_1" data-name="Path 1" d="M44.276,792.194l91.479-127.858a23.3,23.3,0,0,0,4.592-14.128V597.581h12.009l61.1,187.9a24.161,24.161,0,0,0,22.958,16.954,20.131,20.131,0,0,0,7.77-1.413c12.715-3.885,19.426-17.66,15.541-30.375L203.216,597.581h37.792c6,0,8.83-4.238,6.711-9.89L188.381,441.82c-2.472-5.651-2.119-14.481.353-19.779l24.018-52.273,16.954,34.967a23.565,23.565,0,0,0,8.124,9.536l91.125,64.282a23.3,23.3,0,0,0,14.128,4.592A24.137,24.137,0,0,0,362.862,472.9a10.572,10.572,0,0,0,1.413-2.826h3.532a5.383,5.383,0,0,1,3.885,2.119L489.66,655.859c.706,1.06.706,2.826-.353,3.532l-58.631,58.631a3.79,3.79,0,0,1-3.885.353,42.46,42.46,0,0,0-20.132-4.945,43.8,43.8,0,1,0,43.8,43.8,46.853,46.853,0,0,0-4.592-20.132,3.18,3.18,0,0,1,.353-3.532l54.393-53.686c.706-1.06,2.119-.706,2.826.353l31.788,44.856a3.867,3.867,0,0,1-.353,3.885,43.317,43.317,0,0,0-11.3,29.315,43.9,43.9,0,1,0,43.793-43.8,39.681,39.681,0,0,0-11.3,1.413,3.358,3.358,0,0,1-3.532-1.413l-8.83-13.422c-.706-1.06-.353-1.766,1.06-1.766,10.6.706,54.039,0,94.3-48.741,0,0,18.72-21.192,20.132-62.163a2.414,2.414,0,0,0-2.472-2.472l-99.249-.706A2.414,2.414,0,0,1,555,582.747C555,552.018,556.062,528,523.92,528c-32.848,0-31.435,24.018-31.435,54.039a2.414,2.414,0,0,1-2.472,2.472H469.881a5.382,5.382,0,0,1-3.532-2.119L382.994,447.825a5.672,5.672,0,0,0-3.885-1.766H363.568a21.4,21.4,0,0,0-6.711-7.064l-85.827-60.75-38.852-79.47A24.6,24.6,0,0,0,210.986,285H122.333a9.919,9.919,0,0,0-10.243,10.6l6.71,125.382c.353,6-1.413,15.188-4.238,20.486l-77,146.578c-2.826,5.3-.353,9.536,5.651,9.536H91.958v44.856l-87.24,121.5a24.3,24.3,0,0,0,5.651,33.907A23.3,23.3,0,0,0,24.5,802.436a24.617,24.617,0,0,0,19.776-10.242Zm363.8-8.83a26.137,26.137,0,1,1,26.137-26.137,26.137,26.137,0,0,1-26.137,26.137ZM568.777,732.15a26.137,26.137,0,1,1-26.139,26.137,26.136,26.136,0,0,1,26.139-26.137Z" transform="translate(-0.196 -184.338)" fill="#05b6ff" fill-rule="evenodd"/>
            <circle id="Ellipse_2" data-name="Ellipse 2" cx="30.022" cy="30.022" r="30.022" transform="translate(493.35 274.789)" fill="#05b6ff"/>
          </g>
        </g>
      </g>
    </g>
    <rect id="Rectangle_1" data-name="Rectangle 1" width="1000" height="1000" transform="translate(523 3840)" fill="none"/>
  </g>
</svg>
