<svg xmlns="http://www.w3.org/2000/svg" width="1000" height="1000" viewBox="0 0 1000 1000">
  <g id="Group_7" data-name="Group 7" transform="translate(-1790 -3840)">
    <g id="Layer_x0020_1" transform="translate(2090.04 4019.589)">
      <g id="_2258019655456" transform="translate(-0.04 0.095)">
        <path id="Path_2" data-name="Path 2" d="M18.383,2082.44c14.1,3.741,22.256,3.549,36.166-.192,15.637-30.219.288-51.036-.288-86.435l54.777-28.012.48,64.37,157.232-.48v-58.518c33.288,14.006,58.9,49.117,85.283,10.648,12.759-18.515,44.7-65.521,52.475-84.324l-58.422-.192-28.2,39.428c-32.329-12.087-76.17-51.036-105.237-55.736l-23.887,65.234c-13.43-18.131-12.183-48.446-28.4-65.042-21.3,3.453-99.289,50.748-125.958,63.8-29.931,14.678-38.852,14.582-32.521,56.888C5.912,2031.12,8.79,2063.35,18.383,2082.44Z" transform="translate(0.04 -1702.37)" fill="#05b6ff" fill-rule="evenodd"/>
        <path id="Path_3" data-name="Path 3" d="M737.919,3920.28c12.375,118.38,22.064,106.1-81.254,105.813-127.781-.384-102.359,16.788-89.984-132.1-10.936,11.992-26.381,65.33-31.945,81.734L513.343,4037.7c-2.3,13.334,0,15.157,3.837,21.1l56.024,1.919c-.672,34.344-.1,68.591-.288,102.935-.288,31.562,3.166,68.208,41.251,61.2,33.192-6.14,28.588-40,28.3-73.58-.192-16.6.384-33,0-49.6-1.247-55.545-1.727-37.509,10.073-41.922,10.648,6.14,6.811.192,7.579,20.817,1.823,53.53-15.733,144.473,33.672,145.049,51.228.671,35.687-89.5,36.262-165.578l60.245-2.014c3.454-26.285-40.579-130.179-50.076-163.564Z" transform="translate(-463.263 -3520.451)" fill="#05b6ff" fill-rule="evenodd"/>
        <path id="Path_4" data-name="Path 4" d="M1270.84,3568.25c-16.884-6.236-145.529-4.893-158.383.767.192,7.962,0,3.55,2.11,8.634,4.125,10.169.1-1.823,4.125,7.1,8.922,19.954-11.7,85.571-7.675,129.028l160.4-1.247c2.59-20.242-2.494-55.353-4.893-76.937C1254.92,3529.11,1278.52,3616.69,1270.84,3568.25Z" transform="translate(-1003.958 -3222.232)" fill="#05b6ff" fill-rule="evenodd"/>
        <path id="Path_5" data-name="Path 5" d="M1040.26,161.251c-5.756-9.977-9.977-11.416-12.279-24.367,26,34.631,56.888,22.256,86.434,1.823-3.166,9.881-8.826,18.131-8.826,21.777,23.311,14.294,45.376,14.294,59.573-8.442-12.951-19.666-21.68-14.006-22.736-49.309-.672-23.407-.672-44.129-9.209-64.754-18.035-43.457-70.989-43.457-97.371-29.931-38.277,19.474-28.684,63.6-36.358,108.882-5.084,29.739-32.617,22.544-18.419,43.265C993.063,177.847,1023.18,165.76,1040.26,161.251Z" transform="translate(-883.313 -0.095)" fill="#05b6ff" fill-rule="evenodd"/>
        <path id="Path_6" data-name="Path 6" d="M3119.63,797.7c-20.721,4.8-21.776-2.974-21.68,19.09,11.416,8.538,152.531,7.579,181.311,5.756,5.468-.384,6.236-.192,11.608-1.535,8.25-2.11,4.413-.48,9.881-4.221-1.151-25.614-3.741-12.087-22.16-20.625-3.837-30.314-9.593-38.661-26.669-55.449-9.977-9.785-9.977-10.265-24.942-16.5-18.323-7.579-16.5-11.512-30.506-16.212l-11.8,10.169c-5.756,3.741-7.771,3.645-14.39,6.331-10.648,4.221-19.762,9.114-26.189,15.157C3131.24,751.649,3123.09,772.466,3119.63,797.7Z" transform="translate(-2800.752 -640.089)" fill="#05b6ff" fill-rule="evenodd"/>
      </g>
    </g>
    <g id="Group_4" data-name="Group 4">
      <rect id="Rectangle_2" data-name="Rectangle 2" width="1000" height="1000" transform="translate(1790 3840)" fill="none"/>
    </g>
  </g>
</svg>
