<svg xmlns="http://www.w3.org/2000/svg" width="1000" height="1000" viewBox="0 0 1000 1000">
  <g id="Group_5" data-name="Group 5" transform="translate(-3057 -3840)">
    <g id="Layer_x0020_1" transform="translate(3352.084 3995.387)">
      <g id="_2258019650944" transform="translate(-0.084 0.12)">
        <path id="Path_7" data-name="Path 7" d="M1137,1130.84c11.811,1.074,25.591,5.011,33.465,10.2.9-12.348,9.485-34.538,13.6-45.813,4.116-11.811,13.959-32.57,22.548-38.3-1.253,5.727-2.505,21.117-2.863,27.559l-2.863,97.352c0,10.737,57.266,19.864,69.793,20.4,19.327.716,56.729-8.411,73.909-17.538l-1.79-63.529c-1.253-8.948-.179-21.833-1.611-31.675a266.066,266.066,0,0,1-2.326-31.138c24.159,16.106,42.413,108.984,48.139,143.522,3.042,18.075,5.011,16.464-2.684,23.8-13.422,12.706-15.032,35.97-1.968,35.97,9.664,0,10.021-6.8,13.243-20.4,8.948.9,1.79,3.042,15.927,3.042,6.621,0,7.516-3.221,11.632-5.906,6.442,12.348,4.3,15.032,4.3,32.033,0,27.38-1.432,215.82,1.074,222.442,4.116,10.916,19.327,7.337,19.327-4.653v-238.19c0-10.021-6.443-20.759-11.99-25.77-3.937-3.758-8.769-4.474-10.558-8.411-1.074-2.326-1.969-12.706-2.684-16.285-20.759-137.08-55.118-159.807-57.624-168.934,3.937-.9,5.369-2.326,7.516-5.369C1390.58,999.843,1350.67,990,1331.53,990l-6.263,18.253c-5.906,14.138-21.117,31.675-36.686,37.581-24.159,9.127-44.739-2.863-58.518-20.938-10.737-14.137-34.9-3.937-44.56,3.4C1161.34,1046.55,1137,1110.97,1137,1130.84Z" transform="translate(-933.512 -812.855)" fill="#05b6ff" fill-rule="evenodd"/>
        <path id="Path_8" data-name="Path 8" d="M1340,2406.42c0,28.633,34.359,36.507,49.571,16.285,6.8-8.948,6.621-31.854,6.979-45.455l11.632-143.7c.537-10.021,2.863-21.833,2.863-32.033h56.729c0,30.78,6.443,64.782,7.158,94.489l5.011,63.35c4.3,28.275-5.548,74.625,31.317,74.625,32.212,0,28.991-37.223,25.77-60.666l-17.9-208.483c-1.074-7.7-1.432-13.064-2.505-20.759-1.432-8.948-3.758-11.453-5.369-18.074-41.16,19.864-102.542,21.833-143.7,0-2.505,9.485-4.832,2.5-7.337,30.422-1.074,10.916-2.863,24.517-4.116,35.254l-11.811,142.091C1344.12,2349.87,1340,2379.76,1340,2406.42Z" transform="translate(-1100.184 -1745.562)" fill="#05b6ff" fill-rule="evenodd"/>
        <path id="Path_9" data-name="Path 9" d="M149.717,992.519H183v11.632H149.717ZM133.611,949.033Zm0,0c2.326-9.843,11.453-20.938,11.632-30.6H106.052c2.147,9.485,10.916,21.475,13.064,30.6-13.422-3.221-34.538-25.77-46.886-22.548-27.2,7.337-83.035,41.339-70.509,86.257,16.464,59.055,138.154,90.373,201.862,103.078,10.2,2.147,22.727,7.7,32.033-5.19,4.653-6.442,3.4-17.359-1.074-22.906-7.7-9.306-44.918-13.243-67.287-19.864-30.065-8.948-57.8-16.106-86.436-29.707-9.664-4.653-28.275-16.285-34.717-23.443-12.348-13.78-8.411-25.412,6.263-35.254-2.147,8.948-3.758,18.611-5.906,27.559,9.306,6.263,3.4,5.727,30.243,22.19,6.263,3.758,11.453,5.369,17.717,8.411,24.875,11.99,75.34,25.412,103.078,31.854,1.253-14.138,12.706-35.254,11.632-46.171l-9.664-48.5c-4.832-23.443-9.485-15.211,32.928-18.611,16.285-1.432,37.939-2.863,55.3-2.863-3.221-13.422-8.769-18.075-8.769-36.328-14.5,0-29.17.179-43.665,0-11.632,0-49.75,1.611-59.234,7.516Z" transform="translate(0.084 -752.919)" fill="#05b6ff" fill-rule="evenodd"/>
        <path id="Path_10" data-name="Path 10" d="M9,1906.83a91.44,91.44,0,0,1,12.527,5.011c10.2,4.474,30.065,10.38,40.981,12.706,54.581,10.916,117.4,10.2,170.008-7.7,7.874-2.684,18.432-8.053,26.306-10.021,0-4.116-17.18-93.594-20.4-98.6-6.085,25.77-1.074,55.118-30.422,55.118-8.948,0-20.4-8.053-20.4-21.833,0-12.706,3.4-29.17,5.727-42.412,1.253-7.158,2.147-7.7-4.653-9.306-37.939-9.306-77.667-19.148-112.384-35.97L42.29,1737c-.358,5.906-2.863,15.39-3.937,20.759C34.233,1778.16,9,1896.09,9,1906.83Z" transform="translate(-7.374 -1426.176)" fill="#05b6ff" fill-rule="evenodd"/>
        <path id="Path_11" data-name="Path 11" d="M358,220.376c0,25.233,13.064,45.1,32.928,55.655,23.443,12.706,56.729,8.232,74.446-11.99,39.012-44.56,7.337-103.436-43.844-105.226C387.528,157.562,358,185.658,358,220.376Z" transform="translate(-293.919 -130.382)" fill="#05b6ff" fill-rule="evenodd"/>
        <path id="Path_12" data-name="Path 12" d="M1591,655.391v10.2c0,26.843,26.664,62.277,53.866,62.277,48.5,0,82.5-90.015,24.159-117.037-7.158-3.4-12.169-4.832-22.011-5.369a50.127,50.127,0,0,0-38.118,13.959c-5.727,5.548-7.7,6.979-11.811,14.316C1593.68,640.18,1591,646.086,1591,655.391Z" transform="translate(-1306.267 -497.037)" fill="#05b6ff" fill-rule="evenodd"/>
        <path id="Path_13" data-name="Path 13" d="M358,2845.19v133.68c0,56.371,59.413,46.17,59.413,7.158V2849.49c0-6.084-6.442-4.474-12.885-4.295l-33.644-2.863C364.979,2841.43,358,2838.39,358,2845.19Z" transform="translate(-293.919 -2332.504)" fill="#05b6ff" fill-rule="evenodd"/>
        <path id="Path_14" data-name="Path 14" d="M731,2849.59v139.585c0,24.875,30.959,38.476,49.034,21.475,3.579-3.4,9.127-11.1,9.127-17.18V2841c-5.727,0-8.411.716-14.316,1.61l-30.78,2.685C737.621,2845.12,731,2843.5,731,2849.59Z" transform="translate(-600.168 -2332.609)" fill="#05b6ff" fill-rule="evenodd"/>
        <path id="Path_15" data-name="Path 15" d="M1050.96,2117.07c14.853,0,17.9-4.832,20.938-24.159l5.19-36.865c-8.948,4.116-22.727-3.042-34.9-3.042l-5.906,37.76C1034.67,2101.85,1035.39,2117.07,1050.96,2117.07Z" transform="translate(-850.335 -1685.626)" fill="#05b6ff" fill-rule="evenodd"/>
        <path id="Path_16" data-name="Path 16" d="M528,30.521c19.506-10.2,44.023-9.485,63.887,0C588.666-9.565,531.4-10.46,528,30.521Z" transform="translate(-433.496 -0.12)" fill="#05b6ff" fill-rule="evenodd"/>
      </g>
    </g>
    <rect id="Rectangle_3" data-name="Rectangle 3" width="1000" height="1000" transform="translate(3057 3840)" fill="none"/>
  </g>
</svg>
